<svg xmlns="http://www.w3.org/2000/svg" viewBox="0 0 64 64" fill="none">
  <rect width="64" height="64" rx="18" fill="#0F172A"/>
  <path d="M18 24.5C18 20.9101 20.9101 18 24.5 18H43C45.7614 18 48 20.2386 48 23V23C48 25.7614 45.7614 28 43 28H18V24.5Z" fill="#F8FAFC"/>
  <path d="M18 36C18 32.6863 20.6863 30 24 30H40C44.4183 30 48 33.5817 48 38V38C48 42.4183 44.4183 46 40 46H24C20.6863 46 18 43.3137 18 40V36Z" fill="#38BDF8"/>
  <path d="M23 23H37" stroke="#0F172A" stroke-width="3" stroke-linecap="round"/>
  <path d="M23 38H35" stroke="#0F172A" stroke-width="3" stroke-linecap="round"/>
</svg>
